<?xml version="1.0" encoding="UTF-8" standalone="no"?>
<!DOCTYPE svg PUBLIC "-//W3C//DTD SVG 1.1//EN"
 "http://www.w3.org/Graphics/SVG/1.1/DTD/svg11.dtd">
<!-- Generated by graphviz version 2.38.0 (20140413.2041)
 -->
<!-- Title: G Pages: 1 -->
<svg width="110pt" height="184pt"
 viewBox="0.00 0.00 110.00 184.00" xmlns="http://www.w3.org/2000/svg" xmlns:xlink="http://www.w3.org/1999/xlink">
<g id="graph0" class="graph" transform="scale(1 1) rotate(0) translate(4 180)">
<title>G</title>
<polygon fill="white" stroke="none" points="-4,4 -4,-180 106,-180 106,4 -4,4"/>
<g id="clust1" class="cluster"><title>cluster_Global</title>
<path fill="none" stroke="gray" d="M20,-8C20,-8 82,-8 82,-8 88,-8 94,-14 94,-20 94,-20 94,-156 94,-156 94,-162 88,-168 82,-168 82,-168 20,-168 20,-168 14,-168 8,-162 8,-156 8,-156 8,-20 8,-20 8,-14 14,-8 20,-8"/>
<text text-anchor="middle" x="51" y="-155.2" font-family="Times,serif" font-size="11.00" fill="gray">Global</text>
</g>
<g id="clust2" class="cluster"><title>cluster_\SlimBean</title>
<path fill="none" stroke="gray" d="M28,-16C28,-16 74,-16 74,-16 80,-16 86,-22 86,-28 86,-28 86,-129 86,-129 86,-135 80,-141 74,-141 74,-141 28,-141 28,-141 22,-141 16,-135 16,-129 16,-129 16,-28 16,-28 16,-22 22,-16 28,-16"/>
<text text-anchor="middle" x="51" y="-128.2" font-family="Times,serif" font-size="11.00" fill="gray">SlimBean</text>
</g>
<!-- \\SlimBean\\Api -->
<g id="node1" class="node"><title>\\SlimBean\\Api</title>
<polygon fill="none" stroke="black" points="78,-114 24,-114 24,-78 78,-78 78,-114"/>
<text text-anchor="middle" x="51" y="-92.7" font-family="Courier,monospace" font-size="11.00">Api</text>
</g>
<!-- \\SlimBean\\Auth -->
<g id="node2" class="node"><title>\\SlimBean\\Auth</title>
<polygon fill="none" stroke="black" points="78,-60 24,-60 24,-24 78,-24 78,-60"/>
<text text-anchor="middle" x="51" y="-38.7" font-family="Courier,monospace" font-size="11.00">Auth</text>
</g>
</g>
</svg>
